# xmcd
#
# Track frame offsets: 
#        150
#        20199
#        36165
#        50028
#        57286
#        69595
#        85592
#        102652
#        134890
#
# Disc length: 1982 seconds
#
# Revision: 0
# Processed by: cddbd v1.5.2PL0 Copyright (c) Steve Scherf et al.
# Submitted via: ExactAudioCopyFreeDBPlugin 1.0
#
DISCID=8807bc09
DTITLE=Purling Hiss - Water On Mars
DYEAR=2013
DGENRE=Alt. Rock
TTITLE0=Lolita
TTITLE1=Mercury Retrograde
TTITLE2=Rat Race
TTITLE3=Dead Again
TTITLE4=She Calms Me Down
TTITLE5=Face Down
TTITLE6=The Harrowing Wind
TTITLE7=Water On Mars
TTITLE8=Mary Bumble Bee
EXTD=
EXTT0=
EXTT1=
EXTT2=
EXTT3=
EXTT4=
EXTT5=
EXTT6=
EXTT7=
EXTT8=
PLAYORDER=
